#!OML:ASF X:\für Bonn\!DataBase\2005_08_11_Bastian_Final\c3d\Bastian.ASF
:FULLY-SPECIFIED
:DEGREES
92
root -16.9521 16.2018 -17.833 168.851 132.089 -556.219
lowerback 19.6376 -1.07762 8.46108
upperback 8.48495 0.535292 2.9404
thorax -1.73276 0.540984 -1.76615
lowerneck -10.3152 5.04251 -6.21413
upperneck -8.86285 7.38379 -3.59389
head -1.16076 3.99938 0.0303843
rclavicle 4.03533e-014 -1.2424e-014
rhumerus -28.0204 36.6783 -86.6762
rradius 87.7949
rwrist 3.23876
rhand -14.2353 16.6237
rfingers 7.12502
rthumb 11.9023 -13.018
lclavicle 4.03533e-014 -1.2424e-014
lhumerus -35.3652 -8.34906 87.8439
lradius 80.4065
lwrist 188.159
lhand -20.4766 8.08573
lfingers 7.12502
lthumb 5.87972 37.9842
rfemur -24.4421 -0.172325 32.8184
rtibia 57.1611
rfoot -28.7821 0.879664
rtoes -13.0331
lfemur -29.8908 0.341996 -6.4941
ltibia 96.4523
lfoot 1.3894 -5.55536
ltoes -30.6314
93
root -16.7817 16.2273 -17.6625 169.178 132.484 -555.966
lowerback 19.7048 -0.787993 8.47705
upperback 8.40451 0.911412 2.75917
thorax -1.81641 0.722482 -2.04685
lowerneck -10.3396 5.03074 -6.21119
upperneck -8.90846 7.37001 -3.62673
head -1.16969 3.99545 0.0193653
rclavicle -7.81721e-014 5.28767e-014
rhumerus -26.0928 37.6279 -86.3247
rradius 89.5828
rwrist 3.79662
rhand -13.9929 16.7704
rfingers 7.12502
rthumb 12.1359 -12.8576
lclavicle -7.81721e-014 5.28767e-014
lhumerus -36.334 -7.60695 86.8476
lradius 79.2537
lwrist 187.853
lhand -20.0044 7.89415
lfingers 7.12502
lthumb 6.33556 37.7794
rfemur -23.2345 -0.318877 32.7416
rtibia 56.4537
rfoot -29.2201 1.40136
rtoes -12.4468
lfemur -32.1636 0.888916 -7.01183
ltibia 96.7479
lfoot 0.640773 -5.7966
ltoes -30.1621
94
root -16.607 16.2621 -17.4861 169.515 132.788 -555.706
lowerback 19.7299 -0.506399 8.46714
upperback 8.30488 1.26709 2.55439
thorax -1.89843 0.892749 -2.33421
lowerneck -10.461 5.00482 -6.1151
upperneck -8.83158 7.33865 -3.68003
head -1.11955 3.97406 -0.00726482
rclavicle 9.90445e-014 -4.50247e-014
rhumerus -24.2401 38.5582 -86.027
rradius 91.4248
rwrist 4.07901
rhand -13.9109 16.7732
rfingers 7.12502
rthumb 12.215 -12.8501
lclavicle 9.90445e-014 -4.50247e-014
lhumerus -37.3205 -7.10559 85.7858
lradius 78.3189
lwrist 187.785
lhand -19.6594 7.72582
lfingers 7.12502
lthumb 6.66858 37.6008
rfemur -21.9065 -0.514137 32.6251
rtibia 55.5318
rfoot -29.5902 1.86742
rtoes -12.1416
lfemur -34.3447 1.32778 -7.60017
ltibia 96.6938
lfoot -0.236066 -6.18235
ltoes -30.6148
95
root -16.4273 16.3067 -17.3027 169.829 132.964 -555.442
lowerback 19.7261 -0.236324 8.39002
upperback 8.1965 1.59378 2.35994
thorax -1.9783 1.04691 -2.56683
lowerneck -10.6364 4.97446 -5.99984
upperneck -8.68714 7.30659 -3.70159
head -1.04028 3.94834 -0.0241286
rclavicle -4.46272e-014 -2.36554e-014
rhumerus -22.7007 39.1848 -85.8893
rradius 93.139
rwrist 4.2182
rhand -13.8552 17.0749
rfingers 7.12502
rthumb 12.2687 -12.5452
lclavicle -4.46272e-014 -2.36554e-014
lhumerus -38.2532 -6.83549 84.7011
lradius 77.4334
lwrist 188.063
lhand -19.4004 7.52569
lfingers 7.12502
lthumb 6.91864 37.3926
rfemur -20.4109 -0.729845 32.4732
rtibia 54.4001
rfoot -29.8786 2.23133
rtoes -11.8796
lfemur -36.3744 1.60193 -8.26643
ltibia 96.2816
lfoot -1.27411 -6.70366
ltoes -32.0762
96
root -16.2437 16.361 -17.1086 170.153 133.012 -555.147
lowerback 19.662 0.0266883 8.1972
upperback 8.09915 1.88469 2.17956
thorax -2.02332 1.18272 -2.71062
lowerneck -10.9622 4.93676 -5.84462
upperneck -8.43598 7.27504 -3.739
head -0.90221 3.91653 -0.0453554
rclavicle -3.63776e-014 -4.21423e-014
rhumerus -21.4383 39.757 -85.8049
rradius 94.739
rwrist 4.10652
rhand -14.0119 17.5578
rfingers 7.12502
rthumb 12.1176 -12.0712
lclavicle -3.63776e-014 -4.21423e-014
lhumerus -39.136 -6.77232 83.6197
lradius 76.6505
lwrist 188.638
lhand -19.2151 7.27761
lfingers 7.12502
lthumb 7.09754 37.1386
rfemur -18.748 -0.905302 32.2747
rtibia 53.0475
rfoot -30.1213 2.63249
rtoes -11.2876
lfemur -38.2203 1.71105 -8.97675
ltibia 95.5022
lfoot -2.31922 -7.28391
ltoes -33.0827
97
root -16.0563 16.4224 -16.9037 170.44 132.964 -554.873
lowerback 19.5514 0.296182 7.93572
upperback 8.00574 2.16819 2.0127
thorax -2.04458 1.31468 -2.79793
lowerneck -11.3255 4.87463 -5.69917
upperneck -8.14588 7.21629 -3.73318
head -0.748732 3.86957 -0.0504462
rclavicle -7.85199e-015 -3.00165e-014
rhumerus -20.38 40.3452 -85.709
rradius 96.2557
rwrist 3.75393
rhand -14.3319 18.0194
rfingers 7.12502
rthumb 11.8091 -11.6276
lclavicle -7.85199e-015 -3.00165e-014
lhumerus -39.9607 -6.78467 82.5609
lradius 75.8197
lwrist 189.404
lhand -19.0888 7.17286
lfingers 7.12502
lthumb 7.21944 37.0297
rfemur -16.9129 -0.957566 32.1269
rtibia 51.4874
rfoot -30.2572 2.69418
rtoes -10.9604
lfemur -39.84 1.74208 -9.67618
ltibia 94.3697
lfoot -3.39392 -7.89287
ltoes -33.8367
98
root -15.8635 16.4942 -16.6903 170.738 132.804 -554.592
lowerback 19.377 0.560351 7.63073
upperback 7.89998 2.43207 1.84491
thorax -2.05092 1.43647 -2.85508
lowerneck -11.7126 4.79894 -5.54077
upperneck -7.80182 7.14083 -3.68037
head -0.576453 3.81169 -0.0417265
rclavicle -7.15625e-014 -2.72335e-014
rhumerus -19.5459 40.8805 -85.6569
rradius 97.6654
rwrist 3.36495
rhand -14.8051 18.4319
rfingers 7.12502
rthumb 11.3528 -11.2408
lclavicle -7.15625e-014 -2.72335e-014
lhumerus -40.7902 -6.88654 81.555
lradius 75.0079
lwrist 190.39
lhand -18.9866 7.16638
lfingers 7.12502
lthumb 7.31812 37.0198
rfemur -14.9332 -0.936432 32.0147
rtibia 49.7117
rfoot -30.3049 2.40989
rtoes -11.1591
lfemur -41.2542 1.68107 -10.3956
ltibia 92.8774
lfoot -4.36839 -8.43
ltoes -33.9762
99
root -15.6676 16.5734 -16.4723 171.002 132.578 -554.326
lowerback 19.2143 0.820011 7.29583
upperback 7.78924 2.6881 1.68115
thorax -2.07171 1.5535 -2.88886
lowerneck -12.077 4.72201 -5.37219
upperneck -7.44705 7.05914 -3.61405
head -0.404352 3.75056 -0.0310287
rclavicle -1.0635e-014 1.94809e-014
rhumerus -18.894 41.3997 -85.6001
rradius 99.0178
rwrist 2.92445
rhand -15.3478 18.7531
rfingers 7.12502
rthumb 10.8293 -10.9477
lclavicle -1.0635e-014 1.94809e-014
lhumerus -41.6256 -7.16199 80.639
lradius 74.2821
lwrist 191.604
lhand -18.8181 7.28906
lfingers 7.12502
lthumb 7.48074 37.1368
rfemur -12.8118 -0.824168 31.9404
rtibia 47.7115
rfoot -30.3143 2.0092
rtoes -11.2653
lfemur -42.4169 1.62567 -11.103
ltibia 91.0411
lfoot -5.18275 -8.84411
ltoes -34.1086
100
root -15.4659 16.6598 -16.2528 171.291 132.258 -554.046
lowerback 18.9541 1.05022 6.92741
upperback 7.69198 2.89336 1.53279
thorax -2.03629 1.64737 -2.87209
lowerneck -12.4129 4.63494 -5.31608
upperneck -7.08435 6.97488 -3.47289
head -0.240022 3.69156 0.0193518
rclavicle -1.56046e-014 -1.8487e-014
rhumerus -18.5014 41.8487 -85.5977
rradius 100.224
rwrist 2.65718
rhand -15.9776 19.0588
rfingers 7.12502
rthumb 10.2218 -10.6728
lclavicle -1.56046e-014 -1.8487e-014
lhumerus -42.4867 -7.48587 79.8124
lradius 73.7685
lwrist 192.982
lhand -18.6814 7.5552
lfingers 7.12502
lthumb 7.61268 37.3982
rfemur -10.6083 -0.775143 31.8405
rtibia 45.4675
rfoot -30.1839 1.65833
rtoes -11.0019
lfemur -43.3728 1.56375 -11.8574
ltibia 88.8739
lfoot -5.76324 -9.11204
ltoes -34.0037
101
root -15.2579 16.7522 -16.0348 171.551 131.893 -553.775
lowerback 18.6561 1.24927 6.59722
upperback 7.59143 3.0634 1.36799
thorax -1.98523 1.72539 -2.88435
lowerneck -12.4935 4.54233 -5.32977
upperneck -6.89913 6.8676 -3.2913
head -0.174462 3.63178 0.0805316
rclavicle -2.78299e-015 -3.10104e-014
rhumerus -18.3404 42.2565 -85.6952
rradius 101.323
rwrist 2.44735
rhand -16.6118 19.2598
rfingers 7.12502
rthumb 9.60994 -10.501
lclavicle -2.78299e-015 -3.10104e-014
lhumerus -43.412 -7.98193 79.0511
lradius 73.4938
lwrist 194.503
lhand -18.5612 7.87339
lfingers 7.12502
lthumb 7.72868 37.7121
rfemur -8.30613 -0.755726 31.7155
rtibia 42.9946
rfoot -29.7516 1.46109
rtoes -10.3579
lfemur -44.0503 1.38805 -12.623
ltibia 86.3978
lfoot -6.11458 -9.14309
ltoes -33.5501
102
root -15.0436 16.8493 -15.8176 171.762 131.497 -553.586
lowerback 18.3079 1.43559 6.36883
upperback 7.48953 3.23279 1.20319
thorax -1.90297 1.80609 -2.94959
lowerneck -12.498 4.42216 -5.41704
upperneck -6.71999 6.72706 -3.04908
head -0.126455 3.55819 0.168597
rclavicle 2.127e-014 1.19271e-014
rhumerus -18.3253 42.4542 -85.9479
rradius 102.181
rwrist 2.47261
rhand -17.1714 19.3884
rfingers 7.12502
rthumb 9.06995 -10.3966
lclavicle 2.127e-014 1.19271e-014
lhumerus -44.2545 -8.5586 78.3713
lradius 73.4205
lwrist 196.015
lhand -18.5577 8.21161
lfingers 7.12502
lthumb 7.73208 38.0502
rfemur -5.9658 -0.762984 31.6491
rtibia 40.3446
rfoot -28.8774 1.24246
rtoes -10.2633
lfemur -44.5181 1.13883 -13.3786
ltibia 83.64
lfoot -6.32363 -8.87603
ltoes -33.0589
103
root -14.8234 16.9507 -15.5976 172.035 131.067 -553.323
lowerback 17.9161 1.61146 6.01199
upperback 7.39105 3.36679 1.04915
thorax -1.80658 1.86723 -2.92113
lowerneck -12.4557 4.33119 -5.50665
upperneck -6.56853 6.6205 -2.81409
head -0.0943527 3.50292 0.254092
rclavicle 3.61788e-014 -3.18055e-015
rhumerus -18.5606 42.613 -86.3601
rradius 103.017
rwrist 2.67716
rhand -17.6018 19.3818
rfingers 7.12502
rthumb 8.65461 -10.4208
lclavicle 3.61788e-014 -3.18055e-015
lhumerus -45.0007 -9.09416 77.7814
lradius 73.5138
lwrist 197.418
lhand -18.672 8.43375
lfingers 7.12502
lthumb 7.62173 38.2764
rfemur -3.61734 -0.769289 31.5297
rtibia 37.6145
rfoot -27.6088 1.06033
rtoes -10.6355
lfemur -44.775 0.872578 -14.2178
ltibia 80.6202
lfoot -6.49357 -8.48509
ltoes -32.4296
104
root -14.5996 17.0505 -15.3751 172.28 130.627 -553.102
lowerback 17.5198 1.77962 5.61276
upperback 7.2602 3.48885 0.931915
thorax -1.74882 1.91875 -2.82741
lowerneck -12.3524 4.25268 -5.57689
upperneck -6.39937 6.52164 -2.62888
head -0.0639416 3.4499 0.320218
rclavicle -1.21259e-014 3.97569e-016
rhumerus -19.2145 42.7269 -86.8444
rradius 104.012
rwrist 2.96913
rhand -17.9382 19.2148
rfingers 7.12502
rthumb 8.32997 -10.6009
lclavicle -1.21259e-014 3.97569e-016
lhumerus -45.8949 -9.67569 77.2862
lradius 73.8623
lwrist 198.765
lhand -18.8487 8.59572
lfingers 7.12502
lthumb 7.45123 38.4445
rfemur -1.3645 -0.632741 31.4416
rtibia 34.9572
rfoot -26.047 1.05906
rtoes -10.5181
lfemur -44.8558 0.729311 -15.0673
ltibia 77.3948
lfoot -6.81511 -8.07841
ltoes -32.263
105
root -14.3723 17.1461 -15.1513 172.469 130.177 -552.959
lowerback 17.0843 1.95043 5.21399
upperback 7.1099 3.61736 0.861289
thorax -1.69385 1.97218 -2.68338
lowerneck -12.1497 4.17216 -5.68151
upperneck -6.26952 6.41524 -2.43315
head -0.0628514 3.39561 0.391294
rclavicle -8.66701e-014 3.61788e-014
rhumerus -20.267 42.6938 -87.4029
rradius 105.161
rwrist 3.35788
rhand -18.0314 18.967
rfingers 7.12502
rthumb 8.24 -10.8523
lclavicle -8.66701e-014 3.61788e-014
lhumerus -46.9012 -10.3104 76.8933
lradius 74.4475
lwrist 200.012
lhand -19.1255 8.58926
lfingers 7.12502
lthumb 7.18402 38.4473
rfemur 0.754362 -0.345757 31.419
rtibia 32.52
rfoot -24.2382 1.17099
rtoes -10.1886
lfemur -44.7722 0.701 -15.8913
ltibia 73.991
lfoot -7.3363 -7.67229
ltoes -32.5482
106
root -14.1409 17.2372 -14.9253 172.687 129.672 -552.788
lowerback 16.597 2.10369 4.74611
upperback 6.93727 3.7142 0.819221
thorax -1.64481 2.00755 -2.46236
lowerneck -11.86 4.11508 -5.80038
upperneck -6.12386 6.33324 -2.26634
head -0.0705313 3.35274 0.454526
rclavicle 6.36111e-015 -4.17448e-014
rhumerus -21.4991 42.5941 -88.0435
rradius 106.189
rwrist 3.89356
rhand -18.0231 18.7138
rfingers 7.12502
rthumb 8.24801 -11.1052
lclavicle 6.36111e-015 -4.17448e-014
lhumerus -47.7831 -10.7702 76.6014
lradius 75.0896
lwrist 201.091
lhand -19.5705 8.36111
lfingers 7.12502
lthumb 6.75441 38.2334
rfemur 2.68362 -0.12283 31.3694
rtibia 30.4483
rfoot -22.3517 1.3069
rtoes -10.3732
lfemur -44.5155 0.720856 -16.7811
ltibia 70.4179
lfoot -8.02775 -7.27962
ltoes -33.1015
